<svg xmlns="http://www.w3.org/2000/svg" xmlns:xlink="http://www.w3.org/1999/xlink" version="1.1" id="Layer_1" x="0px" y="0px" width="100px" height="100px" viewBox="0 0 100 100" enable-background="new 0 0 100 100" xml:space="preserve">
<g id="GOMI_2_">
	<path id="GOMI_3_" fill="#000000" d="M49.627,4.667c-19.868,0-39.98,4.762-39.98,13.868c0,2.772,1.871,5.137,5.021,7.092   l6.898,60.811l0.005-0.002c0.143,5.889,14.517,9.064,28.055,9.064c18.231,0,28.067-4.715,28.067-9.148   c0-0.01-0.002-0.021-0.004-0.028h0.002l6.884-60.688c3.157-1.955,5.036-4.322,5.036-7.099C89.611,9.429,69.499,4.667,49.627,4.667z    M82.611,29.363l-1.824-1.829c0.748-0.312,1.477-0.633,2.145-0.979L82.611,29.363z M82.396,31.306l-0.97,8.521l-5.269,5.269   L63.753,32.692l1.282-1.283c5.312-0.714,10.197-1.805,14.195-3.268L82.396,31.306z M77.926,70.684l-1.099,1.101L64.23,59.188   L76.159,47.26l3.975,3.977L77.926,70.684z M55.451,77.381l-4.707-4.706L63.148,60.27l12.598,12.595l-6.749,6.75   C65.498,78.521,60.959,77.719,55.451,77.381z M67.715,80.895l-4.374,4.377l-6.202-6.205C61.223,79.43,64.795,80.075,67.715,80.895z    M30.312,79.596l-6.731-6.731L36.176,60.27l12.405,12.405l-4.702,4.7C38.368,77.708,33.819,78.509,30.312,79.596z M42.194,79.061   l-6.209,6.211l-4.391-4.393C34.523,80.061,38.104,79.42,42.194,79.061z M21.309,70.593l-2.187-19.288l4.045-4.044l11.926,11.927   L22.498,71.783L21.309,70.593z M16.312,26.552c0.688,0.353,1.435,0.681,2.207,1.003l-1.879,1.879L16.312,26.552z M20.077,28.162   c4.007,1.461,8.903,2.55,14.223,3.257l1.271,1.274L23.167,45.096l-5.358-5.359l-0.949-8.36L20.077,28.162z M38.463,9.775   c0.063-0.005,0.129-0.01,0.193-0.018l9.925,9.926l-7.809,7.809c-3.449-0.254-6.579-0.643-9.369-1.136l-4.762-4.76L38.463,9.775z    M25.559,20.515l-6.308-6.31c3.644-1.675,9.281-3.257,16.781-4.165L25.559,20.515z M61.589,32.692L49.663,44.619L37.737,32.692   l0.794-0.795c3.618,0.334,7.361,0.508,11.097,0.508c3.759,0,7.522-0.174,11.16-0.516L61.589,32.692z M49.663,46.783l12.405,12.404   L49.663,71.592L37.258,59.188L49.663,46.783z M36.176,58.104L24.25,46.178l12.404-12.405L48.58,45.701L36.176,58.104z    M50.745,45.701L62.67,33.773l12.404,12.405L63.148,58.104L50.745,45.701z M49.627,27.814c-2.4,0-4.653-0.079-6.816-0.199   l6.852-6.851l6.846,6.848C54.327,27.735,52.052,27.814,49.627,27.814z M28.711,25.83c-1.843-0.395-3.509-0.833-5.005-1.296   l1.853-1.855L28.711,25.83z M22.086,46.178l-3.185,3.186l-0.816-7.186L22.086,46.178z M49.663,73.756l3.517,3.518   c-1.15-0.043-2.324-0.07-3.552-0.07c-1.2,0-2.352,0.027-3.479,0.066L49.663,73.756z M77.238,46.178l3.912-3.911l-0.801,7.025   L77.238,46.178z M70.631,25.812l3.135-3.134l1.84,1.84C74.118,24.979,72.465,25.418,70.631,25.812z M67.936,26.344   c-2.789,0.497-5.934,0.886-9.388,1.143l-7.803-7.804l9.919-9.919c0.066,0.007,0.138,0.01,0.206,0.017l11.813,11.815L67.936,26.344z    M63.303,10.051c7.499,0.913,13.121,2.5,16.749,4.179l-6.286,6.285L63.303,10.051z M58.669,9.595l-9.006,9.007l-9.01-9.01   c2.786-0.209,5.763-0.333,8.975-0.333C52.863,9.258,55.866,9.384,58.669,9.595z M14.237,18.535c0-1.017,1.205-2.312,3.572-3.606   l6.667,6.668l-2.391,2.392C16.912,22.159,14.237,20.043,14.237,18.535z M22.79,83.652l-1.033-9.108l0.072,0.071l0.669-0.67   l6.2,6.199C25.934,81.169,23.948,82.378,22.79,83.652z M23.092,86.352c0-1.728,2.52-3.541,6.842-4.971l4.968,4.971l-4.968,4.971   C25.611,89.895,23.092,88.074,23.092,86.352z M35.984,87.434l6.209,6.211c-4.089-0.362-7.671-1.004-10.601-1.819L35.984,87.434z    M44.532,93.818l-7.465-7.467l7.465-7.465c1.635-0.098,3.332-0.156,5.095-0.156c1.792,0,3.51,0.06,5.169,0.158l7.462,7.463   l-7.462,7.463c-1.659,0.099-3.378,0.154-5.169,0.154C47.864,93.971,46.168,93.913,44.532,93.818z M63.341,87.434l4.375,4.375   c-2.921,0.818-6.493,1.465-10.577,1.83L63.341,87.434z M69.374,91.305l-4.952-4.953l4.952-4.951   c4.291,1.426,6.792,3.231,6.792,4.951C76.166,88.072,73.665,89.879,69.374,91.305z M70.609,80.165l6.218-6.22l0.653,0.658   l-1.026,9.039C75.307,82.38,73.34,81.182,70.609,80.165z M77.225,23.971l-2.375-2.375l6.646-6.646   c2.337,1.29,3.521,2.574,3.521,3.584C85.02,20.04,82.361,22.146,77.225,23.971z"/>
</g>
</svg>